<svg id="Layer_1" data-name="Layer 1" xmlns="http://www.w3.org/2000/svg" viewBox="0 0 600 246.07"><defs><style>.cls-1{fill:#f3f3f3;}</style></defs><rect class="cls-1" x="123.09" y="196.22" width="64.54" height="23.21" rx="11.61"/><path d="M136.08,211.59h-.91v-7.7h4.88v.86h-4v2.65h3.75v.86h-3.75Z"/><path d="M141.23,204.93v-1h1v1Zm.94,6.66h-.88V206h.88Z"/><path d="M146.58,205.9v.92h-.21a1.6,1.6,0,0,0-1.21.46,1.83,1.83,0,0,0-.44,1.3v3h-.88V206h.88v1.13a2,2,0,0,1,.67-.88,1.64,1.64,0,0,1,1-.31Z"/><path d="M152.44,209H148a2.58,2.58,0,0,0,.3,1,1.78,1.78,0,0,0,.67.69,1.71,1.71,0,0,0,.93.25,2.2,2.2,0,0,0,.68-.11,1.85,1.85,0,0,0,.57-.31,1.12,1.12,0,0,0,.34-.45h.85a1.67,1.67,0,0,1-.46.84,2.41,2.41,0,0,1-.89.58,2.93,2.93,0,0,1-1.14.22,2.75,2.75,0,0,1-1.43-.38,2.62,2.62,0,0,1-1-1.05,3.32,3.32,0,0,1-.35-1.53,3.14,3.14,0,0,1,.36-1.5,2.67,2.67,0,0,1,2.4-1.44,2.39,2.39,0,0,1,1.34.39,2.59,2.59,0,0,1,.94,1,3.38,3.38,0,0,1,.33,1.51Zm-3.83-2a2,2,0,0,0-.61,1.22h3.53a2.12,2.12,0,0,0-.57-1.21,1.52,1.52,0,0,0-1.12-.45A1.76,1.76,0,0,0,148.61,207Z"/><path d="M157.89,206.21a2.68,2.68,0,0,1,1,1.06,3.41,3.41,0,0,1,0,3,2.66,2.66,0,0,1-1,1.05,2.58,2.58,0,0,1-1.39.39,2.4,2.4,0,0,1-1.16-.28,2.29,2.29,0,0,1-.84-.8v1h-.84V206h0v-2.07h.88l0,3a2.3,2.3,0,0,1,.84-.8,2.44,2.44,0,0,1,1.15-.28A2.58,2.58,0,0,1,157.89,206.21Zm-.51,4.44a2,2,0,0,0,.67-.78,2.44,2.44,0,0,0,.24-1.1,2.47,2.47,0,0,0-.24-1.1,1.87,1.87,0,0,0-.67-.77,1.67,1.67,0,0,0-1-.28,1.72,1.72,0,0,0-1,.28,1.8,1.8,0,0,0-.67.77,2.47,2.47,0,0,0-.24,1.1,2.44,2.44,0,0,0,.24,1.1,1.89,1.89,0,0,0,.67.78,1.8,1.8,0,0,0,1,.28A1.74,1.74,0,0,0,157.38,210.65Z"/><path d="M163.68,206.06a1.63,1.63,0,0,1,.74.68,2,2,0,0,1,.27,1.07v3.78h-.86v-.84a1.66,1.66,0,0,1-.74.72,2.44,2.44,0,0,1-1.15.25,2.25,2.25,0,0,1-1-.21,1.57,1.57,0,0,1-.67-.57,1.53,1.53,0,0,1-.24-.84,1.5,1.5,0,0,1,.23-.81,1.7,1.7,0,0,1,.61-.61,2.12,2.12,0,0,1,.9-.29l1.64-.16a.41.41,0,0,0,.29-.16.62.62,0,0,0,.11-.39,1.13,1.13,0,0,0-.16-.59,1,1,0,0,0-.46-.39,1.53,1.53,0,0,0-.66-.14,1.65,1.65,0,0,0-.68.13,1.23,1.23,0,0,0-.5.34.89.89,0,0,0-.23.49h-.86a1.69,1.69,0,0,1,.37-.86,2.09,2.09,0,0,1,.81-.61,2.72,2.72,0,0,1,1.11-.23A2.49,2.49,0,0,1,163.68,206.06Zm-.69,4.78a1.47,1.47,0,0,0,.83-1.36v-.64l-1.92.2a1.1,1.1,0,0,0-.71.33.93.93,0,0,0-.27.68.9.9,0,0,0,.15.51,1.13,1.13,0,0,0,.42.35,1.48,1.48,0,0,0,.61.12A1.94,1.94,0,0,0,163,210.84Z"/><path d="M166.88,211.5a1.83,1.83,0,0,1-.82-.6,1.44,1.44,0,0,1-.29-.87h.88a.78.78,0,0,0,.19.5,1.25,1.25,0,0,0,.5.35,2,2,0,0,0,.72.12,1.53,1.53,0,0,0,1-.27.85.85,0,0,0,.35-.72.8.8,0,0,0-.21-.57,1,1,0,0,0-.63-.29l-1-.16a2,2,0,0,1-1.15-.53,1.47,1.47,0,0,1-.41-1.05,1.38,1.38,0,0,1,.26-.82A1.75,1.75,0,0,1,167,206a2.87,2.87,0,0,1,2.13,0,1.76,1.76,0,0,1,.76.56,1.34,1.34,0,0,1,.29.82h-.88a.67.67,0,0,0-.17-.44,1.07,1.07,0,0,0-.45-.31,1.69,1.69,0,0,0-.64-.12,1.66,1.66,0,0,0-.61.11.93.93,0,0,0-.43.3.67.67,0,0,0-.15.44.74.74,0,0,0,.2.53,1,1,0,0,0,.58.26l1.06.17a2,2,0,0,1,1.18.55,1.51,1.51,0,0,1,.4,1.09,1.55,1.55,0,0,1-.26.91,1.67,1.67,0,0,1-.75.6,2.6,2.6,0,0,1-1.12.22A3,3,0,0,1,166.88,211.5Z"/><path d="M176.41,209h-4.47a2.59,2.59,0,0,0,.31,1,1.83,1.83,0,0,0,.66.69,1.76,1.76,0,0,0,.94.25,2.14,2.14,0,0,0,.67-.11,1.74,1.74,0,0,0,.57-.31,1.12,1.12,0,0,0,.34-.45h.85a1.65,1.65,0,0,1-.45.84,2.45,2.45,0,0,1-.9.58,2.93,2.93,0,0,1-1.14.22,2.75,2.75,0,0,1-1.43-.38,2.62,2.62,0,0,1-1-1.05,3.32,3.32,0,0,1-.35-1.53,3.14,3.14,0,0,1,.36-1.5,2.7,2.7,0,0,1,2.4-1.44,2.37,2.37,0,0,1,1.34.39,2.59,2.59,0,0,1,.94,1,3.39,3.39,0,0,1,.34,1.51Zm-3.84-2a2,2,0,0,0-.6,1.22h3.52a2.17,2.17,0,0,0-.56-1.21,1.54,1.54,0,0,0-1.13-.45A1.8,1.8,0,0,0,172.57,207Z"/><rect class="cls-1" x="123.09" y="80.96" width="306.37" height="112.5" rx="14"/><path d="M268,141.27h-.88v-7.7H268v3.61l3.6-3.61h1.2L269,137.29l3.8,4h-1.23l-3.64-3.8Z"/><path d="M275.23,141.27a1.37,1.37,0,0,1-1-.32,1.19,1.19,0,0,1-.35-.9v-3.63h-1v-.78h.61a.45.45,0,0,0,.34-.13.49.49,0,0,0,.13-.34v-.94h.79v1.41h1.36v.78h-1.36V140a.45.45,0,0,0,.49.49h.86v.78Z"/><path d="M278.32,141a2.69,2.69,0,0,1-1-1.05,3.15,3.15,0,0,1-.37-1.51,3.19,3.19,0,0,1,.37-1.52,2.83,2.83,0,0,1,4.94,0,3.19,3.19,0,0,1,.36,1.52,3,3,0,0,1-.37,1.51,2.58,2.58,0,0,1-1,1.05,2.89,2.89,0,0,1-2.9,0Zm2.44-.7a1.71,1.71,0,0,0,.68-.75,2.33,2.33,0,0,0,.25-1.11,2.37,2.37,0,0,0-.25-1.12,1.8,1.8,0,0,0-.68-.76,1.91,1.91,0,0,0-1-.26,1.86,1.86,0,0,0-1,.26,1.89,1.89,0,0,0-.69.76,2.49,2.49,0,0,0-.24,1.12,2.45,2.45,0,0,0,.24,1.11,1.85,1.85,0,0,0,1.67,1A1.83,1.83,0,0,0,280.76,140.32Z"/><path d="M286.56,135.59v.91h-.2a1.57,1.57,0,0,0-1.21.47,1.76,1.76,0,0,0-.44,1.29v3h-.88v-5.63h.88v1.13a2,2,0,0,1,.66-.88,1.71,1.71,0,0,1,1-.3Z"/><rect class="cls-1" x="123.09" y="30.2" width="115.68" height="47.94" rx="14"/><path d="M167.13,58.29h-.88v-7.7h.88V54.2l3.61-3.61h1.2l-3.74,3.72,3.8,4h-1.23l-3.64-3.81Z"/><path d="M173.39,58a2.71,2.71,0,0,1-1-1.06,3.27,3.27,0,0,1,0-3,2.62,2.62,0,0,1,1-1.05,2.89,2.89,0,0,1,2.9,0,2.64,2.64,0,0,1,1,1.05,3,3,0,0,1,.37,1.51,3.13,3.13,0,0,1-.37,1.51,2.81,2.81,0,0,1-1,1.06,2.86,2.86,0,0,1-1.46.38A2.82,2.82,0,0,1,173.39,58Zm2.44-.7a1.9,1.9,0,0,0,.68-.75,2.5,2.5,0,0,0,.25-1.12,2.53,2.53,0,0,0-.25-1.12,1.9,1.9,0,0,0-.68-.75,1.86,1.86,0,0,0-2.65.75,2.4,2.4,0,0,0-.25,1.12,2.37,2.37,0,0,0,.25,1.12,1.89,1.89,0,0,0,2.65.75Z"/><path d="M180.4,58.29a1.37,1.37,0,0,1-1-.33,1.12,1.12,0,0,1-.36-.89V53.44h-1v-.78h.61a.44.44,0,0,0,.33-.14.43.43,0,0,0,.13-.33v-.94H180v1.41h1.36v.78H180V57a.46.46,0,0,0,.14.36.49.49,0,0,0,.36.14h.86v.78Z"/><path d="M187.49,55.69H183a2.43,2.43,0,0,0,.3,1,1.78,1.78,0,0,0,.67.69,1.71,1.71,0,0,0,.93.25,2.2,2.2,0,0,0,.68-.11,1.79,1.79,0,0,0,.56-.31,1.15,1.15,0,0,0,.35-.45h.85a1.75,1.75,0,0,1-.46.84,2.66,2.66,0,0,1-.89.59,3.12,3.12,0,0,1-1.14.21,2.75,2.75,0,0,1-1.43-.38,2.55,2.55,0,0,1-1-1,3.32,3.32,0,0,1-.35-1.53,3.14,3.14,0,0,1,.36-1.5,2.55,2.55,0,0,1,1-1.05,2.63,2.63,0,0,1,1.42-.39,2.41,2.41,0,0,1,1.34.39,2.5,2.5,0,0,1,.93,1.05,3.26,3.26,0,0,1,.34,1.51Zm-3.83-1.95a2,2,0,0,0-.61,1.22h3.52a2,2,0,0,0-.56-1.21,1.52,1.52,0,0,0-1.12-.45A1.76,1.76,0,0,0,183.66,53.74Z"/><path d="M189.36,58.2a1.89,1.89,0,0,1-.82-.6,1.44,1.44,0,0,1-.29-.87h.88a.81.81,0,0,0,.19.5,1.25,1.25,0,0,0,.5.35,2,2,0,0,0,.72.12,1.6,1.6,0,0,0,1-.26.88.88,0,0,0,.35-.73.8.8,0,0,0-.21-.57,1.09,1.09,0,0,0-.62-.29l-1-.16a2,2,0,0,1-1.15-.53,1.46,1.46,0,0,1-.41-1,1.38,1.38,0,0,1,.26-.82,1.83,1.83,0,0,1,.73-.57,2.9,2.9,0,0,1,2.14,0,1.73,1.73,0,0,1,.75.56,1.28,1.28,0,0,1,.29.82h-.88a.67.67,0,0,0-.17-.44,1.07,1.07,0,0,0-.45-.31,1.76,1.76,0,0,0-1.25,0,1,1,0,0,0-.43.3.69.69,0,0,0-.15.44.74.74,0,0,0,.2.53,1,1,0,0,0,.58.26l1.06.17a2,2,0,0,1,1.18.55,1.52,1.52,0,0,1,.41,1.09,1.55,1.55,0,0,1-.27.91,1.7,1.7,0,0,1-.75.61,2.76,2.76,0,0,1-1.12.21A3,3,0,0,1,189.36,58.2Z"/><path d="M195.48,58.29a1.33,1.33,0,0,1-1-.33,1.12,1.12,0,0,1-.36-.89V53.44h-1v-.78h.61a.44.44,0,0,0,.34-.14.43.43,0,0,0,.13-.33v-.94H195v1.41h1.36v.78H195V57a.46.46,0,0,0,.14.36.49.49,0,0,0,.36.14h.85v.78Z"/><rect class="cls-1" x="432.23" y="147.14" width="167.42" height="90.25" rx="14"/><rect class="cls-1" x="241.56" width="187.9" height="78.15" rx="14"/><path d="M326.61,43.18h-.88v-7.7h.88v3.61l3.6-3.61h1.2l-3.73,3.72,3.79,4h-1.23l-3.63-3.8Z"/><path d="M332.86,42.93a2.62,2.62,0,0,1-1-1,3,3,0,0,1-.37-1.51,3.08,3.08,0,0,1,.37-1.52,2.75,2.75,0,0,1,1-1.05,3,3,0,0,1,2.91,0,2.75,2.75,0,0,1,1,1.05,3.08,3.08,0,0,1,.37,1.52,3,3,0,0,1-.37,1.51,2.71,2.71,0,0,1-1,1,2.77,2.77,0,0,1-1.46.38A2.72,2.72,0,0,1,332.86,42.93Zm2.44-.7a1.71,1.71,0,0,0,.68-.75,2.61,2.61,0,0,0,0-2.23,1.8,1.8,0,0,0-.68-.76,2,2,0,0,0-2,0,1.86,1.86,0,0,0-.68.76,2.61,2.61,0,0,0,0,2.23,1.78,1.78,0,0,0,.68.75,1.93,1.93,0,0,0,2,0Z"/><path d="M338.3,36.53V35.48h1v1.05Zm.94,6.65h-.87V37.55h.87Z"/><path d="M344.67,37.69a1.87,1.87,0,0,1,.73.77,2.58,2.58,0,0,1,.25,1.17v3.55h-.88V39.7a1.59,1.59,0,0,0-.37-1.13,1.33,1.33,0,0,0-1-.4,1.62,1.62,0,0,0-.83.2,1.32,1.32,0,0,0-.55.57,1.87,1.87,0,0,0-.2.88v3.36h-.87V37.55h.84v.86a1.8,1.8,0,0,1,.73-.74,2.14,2.14,0,0,1,1.07-.25A2.23,2.23,0,0,1,344.67,37.69Z"/><rect class="cls-1" x="123.09" y="222.23" width="64.54" height="23.21" rx="11.61"/><path d="M146.13,233.19a1.94,1.94,0,0,1-.71.77,2.56,2.56,0,0,1-1.08.37l2,3.26h-1.05l-2-3.22h-1.61v3.22h-.91v-7.7h3.08a2.92,2.92,0,0,1,1.29.27,2.06,2.06,0,0,1,.86.79,2.13,2.13,0,0,1,.31,1.17A2.2,2.2,0,0,1,146.13,233.19Zm-4.38-2.45v2.77h2.17a1.6,1.6,0,0,0,.78-.17,1.23,1.23,0,0,0,.53-.48,1.47,1.47,0,0,0,.18-.74,1.44,1.44,0,0,0-.18-.73,1.23,1.23,0,0,0-.53-.48,1.73,1.73,0,0,0-.78-.17Z"/><path d="M152.36,235H147.9a2.43,2.43,0,0,0,.3,1,1.78,1.78,0,0,0,.67.69,1.71,1.71,0,0,0,.93.25,2.2,2.2,0,0,0,.68-.11,1.61,1.61,0,0,0,.56-.31,1.15,1.15,0,0,0,.35-.45h.85a1.75,1.75,0,0,1-.46.84,2.66,2.66,0,0,1-.89.59,3.12,3.12,0,0,1-1.14.21,2.75,2.75,0,0,1-1.43-.38,2.55,2.55,0,0,1-1-1.05,3.32,3.32,0,0,1-.35-1.53,3.25,3.25,0,0,1,.35-1.5,2.67,2.67,0,0,1,2.41-1.43,2.41,2.41,0,0,1,1.34.38,2.5,2.5,0,0,1,.93,1,3.29,3.29,0,0,1,.34,1.51Zm-3.83-1.94a2,2,0,0,0-.61,1.21h3.52a2,2,0,0,0-.56-1.21,1.52,1.52,0,0,0-1.12-.45A1.73,1.73,0,0,0,148.53,233.05Z"/><path d="M156.83,232.06a1.63,1.63,0,0,1,.74.68,2,2,0,0,1,.26,1.07v3.78H157v-.84a1.66,1.66,0,0,1-.74.72,2.44,2.44,0,0,1-1.15.25,2.25,2.25,0,0,1-1-.21,1.5,1.5,0,0,1-.67-.57,1.53,1.53,0,0,1-.24-.84,1.61,1.61,0,0,1,.22-.81,1.81,1.81,0,0,1,.62-.61,2.22,2.22,0,0,1,.9-.29l1.64-.16a.37.37,0,0,0,.29-.16.62.62,0,0,0,.11-.39,1.07,1.07,0,0,0-.17-.59,1,1,0,0,0-.45-.39,1.53,1.53,0,0,0-.66-.14,1.73,1.73,0,0,0-.69.13,1.29,1.29,0,0,0-.5.35.88.88,0,0,0-.22.48h-.86a1.77,1.77,0,0,1,.36-.86,2.32,2.32,0,0,1,.82-.61,2.72,2.72,0,0,1,1.11-.22A2.49,2.49,0,0,1,156.83,232.06Zm-.69,4.78a1.55,1.55,0,0,0,.61-.55,1.58,1.58,0,0,0,.22-.81v-.64l-1.92.2a1.1,1.1,0,0,0-.71.33.93.93,0,0,0-.27.68.9.9,0,0,0,.15.51,1,1,0,0,0,.42.35,1.48,1.48,0,0,0,.61.12A1.94,1.94,0,0,0,156.14,236.84Z"/><path d="M160.25,237.59h-.88v-7.7h.88Z"/><path d="M169.27,232.1a1.91,1.91,0,0,1,.71.78,2.51,2.51,0,0,1,.25,1.16v3.55h-.88v-3.52A1.61,1.61,0,0,0,169,233a1.16,1.16,0,0,0-1-.4,1.45,1.45,0,0,0-1.35.86,2.42,2.42,0,0,0-.18,1v3.2h-.88v-3.52a1.61,1.61,0,0,0-.35-1.1,1.28,1.28,0,0,0-1-.4,1.41,1.41,0,0,0-.81.23,1.36,1.36,0,0,0-.52.63,2.42,2.42,0,0,0-.18,1v3.2h-.88V232h.85v.83a1.81,1.81,0,0,1,.69-.71,2,2,0,0,1,1-.25,2,2,0,0,1,1.09.29,1.94,1.94,0,0,1,.73.82,2.17,2.17,0,0,1,.77-.82,2.14,2.14,0,0,1,1.13-.29A2.11,2.11,0,0,1,169.27,232.1Z"/><rect class="cls-1" x="55.79" y="54.93" width="64.54" height="23.21" rx="11.61"/><path d="M73.48,65.9a2,2,0,0,1-.7.76A2.67,2.67,0,0,1,71.7,67l2,3.25h-1l-2-3.22H69.1v3.22h-.91v-7.7h3.08a2.92,2.92,0,0,1,1.29.28,2.06,2.06,0,0,1,.87.78,2.28,2.28,0,0,1,.3,1.18A2.22,2.22,0,0,1,73.48,65.9ZM69.1,63.45v2.77h2.17a1.8,1.8,0,0,0,.79-.17,1.29,1.29,0,0,0,.52-.49,1.44,1.44,0,0,0,.18-.73,1.47,1.47,0,0,0-.18-.74,1.34,1.34,0,0,0-.52-.48,1.8,1.8,0,0,0-.79-.16Z"/><path d="M79.71,67.69H75.25a2.49,2.49,0,0,0,.31,1,1.85,1.85,0,0,0,.66.7,1.82,1.82,0,0,0,.93.25,2.2,2.2,0,0,0,.68-.11,2.08,2.08,0,0,0,.57-.31,1.12,1.12,0,0,0,.34-.45h.85a1.68,1.68,0,0,1-.46.83,2.35,2.35,0,0,1-.89.59,3.12,3.12,0,0,1-1.14.22,2.75,2.75,0,0,1-1.43-.38,2.71,2.71,0,0,1-1-1.06,3.3,3.3,0,0,1-.35-1.52A3.15,3.15,0,0,1,74.7,66a2.64,2.64,0,0,1,2.4-1.43,2.44,2.44,0,0,1,1.34.38A2.69,2.69,0,0,1,79.38,66a3.38,3.38,0,0,1,.33,1.51Zm-3.83-1.94a1.92,1.92,0,0,0-.6,1.22H78.8a2.15,2.15,0,0,0-.57-1.22,1.5,1.5,0,0,0-1.12-.45A1.76,1.76,0,0,0,75.88,65.75Z"/><path d="M84.18,64.76a1.74,1.74,0,0,1,.74.68,2,2,0,0,1,.27,1.07v3.78h-.86v-.83a1.77,1.77,0,0,1-.74.72,2.54,2.54,0,0,1-1.15.25,2.25,2.25,0,0,1-1-.21,1.65,1.65,0,0,1-.67-.58,1.48,1.48,0,0,1-.24-.84,1.55,1.55,0,0,1,.23-.81,1.73,1.73,0,0,1,.62-.61,2.17,2.17,0,0,1,.89-.28l1.64-.17a.4.4,0,0,0,.29-.15.64.64,0,0,0,.11-.4,1.07,1.07,0,0,0-.16-.59,1.23,1.23,0,0,0-.45-.39,1.6,1.6,0,0,0-.67-.13,1.83,1.83,0,0,0-.68.12,1.32,1.32,0,0,0-.5.35.89.89,0,0,0-.23.48h-.85a1.57,1.57,0,0,1,.36-.85,2.25,2.25,0,0,1,.82-.62,2.64,2.64,0,0,1,1.1-.22A2.6,2.6,0,0,1,84.18,64.76Zm-.68,4.78a1.39,1.39,0,0,0,.6-.55,1.44,1.44,0,0,0,.22-.8v-.64l-1.92.2a1.09,1.09,0,0,0-.71.32,1,1,0,0,0-.27.68.9.9,0,0,0,.15.51,1,1,0,0,0,.42.35,1.35,1.35,0,0,0,.62.13A2,2,0,0,0,83.5,69.54Z"/><path d="M87.61,70.29h-.88v-7.7h.88v4.67l2.54-2.6h1.1l-2.64,2.68,2.74,3H90.23l-2.62-2.84Z"/><path d="M93.64,70.29a1.37,1.37,0,0,1-1-.32,1.19,1.19,0,0,1-.35-.9V65.44h-1v-.78h.61a.45.45,0,0,0,.34-.13.49.49,0,0,0,.13-.34v-.94h.79v1.41h1.36v.78H93.19V69a.45.45,0,0,0,.49.49h.86v.78Z"/><path d="M95.75,63.64v-1h1v1Zm.94,6.65h-.88V64.66h.88Z"/><path d="M100.78,70.29h-.94l-2.19-5.63h1l1.73,4.6,1.71-4.6H103Z"/><path d="M108.78,67.69h-4.46a2.35,2.35,0,0,0,.3,1,1.88,1.88,0,0,0,.67.7,1.8,1.8,0,0,0,.93.25,2.2,2.2,0,0,0,.68-.11,2,2,0,0,0,.56-.31,1.15,1.15,0,0,0,.35-.45h.85a1.77,1.77,0,0,1-.46.83,2.52,2.52,0,0,1-.89.59,3.12,3.12,0,0,1-1.14.22,2.75,2.75,0,0,1-1.43-.38,2.64,2.64,0,0,1-1-1.06,3.3,3.3,0,0,1-.35-1.52,3.15,3.15,0,0,1,.36-1.51,2.68,2.68,0,0,1,1-1,2.72,2.72,0,0,1,1.42-.38,2.49,2.49,0,0,1,1.34.38,2.59,2.59,0,0,1,.93,1.06,3.26,3.26,0,0,1,.34,1.51ZM105,65.75a2,2,0,0,0-.61,1.22h3.52a2.08,2.08,0,0,0-.56-1.22,1.52,1.52,0,0,0-1.12-.45A1.73,1.73,0,0,0,105,65.75Z"/><rect class="cls-1" y="80.96" width="120.31" height="61.67" rx="14"/><rect class="cls-1" x="14.18" y="145.4" width="106.15" height="48.07" rx="14"/><rect class="cls-1" x="190.42" y="196.22" width="135.46" height="49.18" rx="14"/><path d="M231.59,224.77a2.31,2.31,0,0,1-1-.82,2.09,2.09,0,0,1-.34-1.2h.93a1.34,1.34,0,0,0,.23.77,1.5,1.5,0,0,0,.63.53,2.48,2.48,0,0,0,1.83,0,1.38,1.38,0,0,0,.61-.5,1.21,1.21,0,0,0,.22-.73,1.23,1.23,0,0,0-.3-.83,1.45,1.45,0,0,0-.83-.46l-1.36-.26a2.27,2.27,0,0,1-.94-.4,2,2,0,0,1-.61-.73,2.12,2.12,0,0,1-.21-.94,2,2,0,0,1,.31-1.1,2.19,2.19,0,0,1,.89-.75,3.08,3.08,0,0,1,1.28-.26,3,3,0,0,1,1.31.27,2.22,2.22,0,0,1,.9.75,2,2,0,0,1,.32,1.11h-.94a1.16,1.16,0,0,0-.2-.68,1.28,1.28,0,0,0-.56-.46,2,2,0,0,0-1.63,0,1.28,1.28,0,0,0-.56.46,1.21,1.21,0,0,0-.2.68,1.16,1.16,0,0,0,.27.78,1.41,1.41,0,0,0,.78.42l1.42.28a2.3,2.3,0,0,1,.93.41,2.08,2.08,0,0,1,.63.75,2.14,2.14,0,0,1-.11,2.12,2.28,2.28,0,0,1-1,.79,3.24,3.24,0,0,1-1.38.28A3.32,3.32,0,0,1,231.59,224.77Z"/><path d="M244.1,222.57a3.69,3.69,0,0,1-1.82,2.08l1.6,2h-1.15L241.4,225a4,4,0,0,1-.85.09,3.65,3.65,0,0,1-1.93-.52,3.69,3.69,0,0,1-1.37-1.43,4.39,4.39,0,0,1,0-4.07,3.77,3.77,0,0,1,6.6,0,4.11,4.11,0,0,1,.5,2A4.32,4.32,0,0,1,244.1,222.57Zm-6,.13a2.79,2.79,0,0,0,1,1.12,2.86,2.86,0,0,0,2.92,0,2.79,2.79,0,0,0,1-1.12,3.58,3.58,0,0,0,.37-1.62,3.46,3.46,0,0,0-.37-1.63,2.74,2.74,0,0,0-1-1.12,2.85,2.85,0,0,0-1.48-.4,2.7,2.7,0,0,0-1.46.41,2.83,2.83,0,0,0-1,1.11,3.75,3.75,0,0,0,0,3.25Z"/><path d="M245.91,224.93v-7.7h.9v6.84h3.93v.86Z"/><path d="M252,224.93v-7.7h2.73a3.8,3.8,0,0,1,1.92.48,3.43,3.43,0,0,1,1.3,1.37,4.49,4.49,0,0,1,0,4,3.41,3.41,0,0,1-1.3,1.36,3.81,3.81,0,0,1-1.92.49Zm2.73-.86a2.69,2.69,0,0,0,1.42-.37,2.64,2.64,0,0,0,1-1.06,3.44,3.44,0,0,0,.34-1.56,3.38,3.38,0,0,0-.34-1.56,2.57,2.57,0,0,0-1-1.06,2.69,2.69,0,0,0-1.42-.38h-1.82v6Z"/><path d="M264.66,222.33h-4.47a2.59,2.59,0,0,0,.31,1,1.83,1.83,0,0,0,.66.69,1.76,1.76,0,0,0,.94.25,2.14,2.14,0,0,0,.67-.11,1.74,1.74,0,0,0,.57-.31,1.12,1.12,0,0,0,.34-.45h.85a1.65,1.65,0,0,1-.45.84,2.45,2.45,0,0,1-.9.58,2.93,2.93,0,0,1-1.14.22,2.75,2.75,0,0,1-1.43-.38,2.62,2.62,0,0,1-1-1.05,3.32,3.32,0,0,1-.35-1.53,3.14,3.14,0,0,1,.36-1.5,2.7,2.7,0,0,1,2.4-1.44,2.37,2.37,0,0,1,1.34.39,2.59,2.59,0,0,1,.94,1,3.39,3.39,0,0,1,.34,1.51Zm-3.84-2a2,2,0,0,0-.6,1.22h3.52a2.17,2.17,0,0,0-.56-1.21,1.54,1.54,0,0,0-1.13-.45A1.8,1.8,0,0,0,260.82,220.38Z"/><path d="M266.75,224.93h-.88v-7.7h.88Z"/><path d="M268.36,218.27v-1h1v1Zm.94,6.66h-.88V219.3h.88Z"/><path d="M275,219.3h.85v5.18a2.5,2.5,0,0,1-.31,1.26,2,2,0,0,1-.89.8,3.07,3.07,0,0,1-1.37.28,3.21,3.21,0,0,1-1.28-.24,2.14,2.14,0,0,1-.9-.67,1.9,1.9,0,0,1-.4-1h.88a1.25,1.25,0,0,0,.31.59,1.49,1.49,0,0,0,.59.41,2.07,2.07,0,0,0,.8.15,1.74,1.74,0,0,0,1.24-.42,1.55,1.55,0,0,0,.44-1.17v-.39l0-.58a2.11,2.11,0,0,1-.81.7,2.62,2.62,0,0,1-2.37-.09,2.28,2.28,0,0,1-.88-.94,3,3,0,0,1,0-2.72,2.28,2.28,0,0,1,.88-.94,2.62,2.62,0,0,1,2.39-.08,2.27,2.27,0,0,1,.82.72Zm-.88,4.15a1.56,1.56,0,0,0,.62-.65,2.29,2.29,0,0,0,0-2,1.56,1.56,0,0,0-.62-.65,1.86,1.86,0,0,0-1.79,0,1.51,1.51,0,0,0-.6.65,2.29,2.29,0,0,0,0,2,1.57,1.57,0,0,0,.6.65,1.86,1.86,0,0,0,1.79,0Z"/><path d="M281.21,219.44a1.75,1.75,0,0,1,.73.77,2.51,2.51,0,0,1,.26,1.16v3.56h-.88v-3.52a1.57,1.57,0,0,0-.36-1.1,1.28,1.28,0,0,0-1-.4,1.65,1.65,0,0,0-.85.22,1.46,1.46,0,0,0-.56.64,2.06,2.06,0,0,0-.2,1v3.2h-.88v-7.7h.88V219l0,1.11a1.69,1.69,0,0,1,.72-.73,2.16,2.16,0,0,1,1.08-.26A2.07,2.07,0,0,1,281.21,219.44Z"/><path d="M285.25,224.93a1.37,1.37,0,0,1-1-.33,1.12,1.12,0,0,1-.35-.89v-3.63h-1v-.78h.61a.45.45,0,0,0,.46-.47v-.94h.8v1.41h1.35v.78H284.8v3.57a.45.45,0,0,0,.13.36.49.49,0,0,0,.36.14h.86v.78Z"/><rect class="cls-1" x="328.69" y="196.22" width="100.77" height="41.18" rx="14"/><path d="M339.94,220.92h-.87v-7.68h.87v4.66l2.54-2.6h1.1L341,218l2.73,2.95h-1.12l-2.62-2.84Z"/><path d="M345.43,220.67a2.76,2.76,0,0,1-1-1,3.35,3.35,0,0,1,0-3,2.88,2.88,0,0,1,3.92-1,2.75,2.75,0,0,1,1,1,3,3,0,0,1,.37,1.51,3.15,3.15,0,0,1-.37,1.51,2.71,2.71,0,0,1-1,1,3,3,0,0,1-2.9,0Zm2.44-.7a1.71,1.71,0,0,0,.68-.75,2.45,2.45,0,0,0,.25-1.11,2.53,2.53,0,0,0-.25-1.12,1.83,1.83,0,0,0-.68-.75,1.91,1.91,0,0,0-1-.26,1.86,1.86,0,0,0-1,.26,1.83,1.83,0,0,0-.68.75,2.4,2.4,0,0,0-.25,1.12,2.33,2.33,0,0,0,.25,1.11,1.71,1.71,0,0,0,.68.75,1.78,1.78,0,0,0,1,.27A1.83,1.83,0,0,0,347.87,220Z"/><path d="M352.66,220.92a1.37,1.37,0,0,1-1-.32,1.16,1.16,0,0,1-.36-.9v-3.62h-1v-.78H351a.44.44,0,0,0,.34-.13.44.44,0,0,0,.13-.33v-.94h.79v1.4h1.35v.78h-1.36v3.57a.45.45,0,0,0,.49.49h.86v.78Z"/><path d="M355.92,220.92H355v-7.68h.88Z"/><path d="M357.75,214.28v-1h1v1Zm.94,6.64h-.88V215.3h.88Z"/><path d="M364.32,215.44a1.81,1.81,0,0,1,.73.77,2.55,2.55,0,0,1,.25,1.17v3.54h-.88v-3.48a1.58,1.58,0,0,0-.37-1.12,1.29,1.29,0,0,0-1-.4,1.6,1.6,0,0,0-.83.2,1.32,1.32,0,0,0-.55.57,1.87,1.87,0,0,0-.2.88v3.35h-.88V215.3h.85v.86a1.83,1.83,0,0,1,.72-.74,2.42,2.42,0,0,1,2.18,0Z"/><path d="M369.39,218l2.05,2.88h-1l-1.55-2.21-1.53,2.21h-1l2.05-2.9-1.94-2.72h1l1.43,2,1.43-2h1Z"/><path d="M372.42,220.92v-1.21h1.2v1.21Z"/><path d="M380,215.3h0v5.62h-.85V220a2.13,2.13,0,0,1-.84.79,2.34,2.34,0,0,1-1.16.28,2.65,2.65,0,0,1-1.38-.38,2.68,2.68,0,0,1-1-1.06,3.39,3.39,0,0,1,0-3,2.68,2.68,0,0,1,1-1.06,2.65,2.65,0,0,1,1.38-.38,2.34,2.34,0,0,1,1.16.28,2.29,2.29,0,0,1,.84.8l0-3H380ZM378.23,220a1.82,1.82,0,0,0,.68-.77,2.47,2.47,0,0,0,.24-1.1,2.5,2.5,0,0,0-.24-1.1,1.89,1.89,0,0,0-.68-.77,1.69,1.69,0,0,0-1-.28,1.67,1.67,0,0,0-1,.28,1.94,1.94,0,0,0-.67.77,2.5,2.5,0,0,0-.24,1.1,2.47,2.47,0,0,0,.24,1.1,1.87,1.87,0,0,0,.67.77,1.67,1.67,0,0,0,1,.28A1.69,1.69,0,0,0,378.23,220Z"/><path d="M385.11,215.4a1.74,1.74,0,0,1,.74.68,2,2,0,0,1,.26,1.07v3.77h-.85v-.83a1.69,1.69,0,0,1-.74.71,2.41,2.41,0,0,1-1.15.25,2.32,2.32,0,0,1-1-.2,1.59,1.59,0,0,1-.67-.58,1.48,1.48,0,0,1-.24-.84,1.54,1.54,0,0,1,.22-.81,1.88,1.88,0,0,1,.62-.6,2.18,2.18,0,0,1,.89-.29l1.64-.16a.37.37,0,0,0,.29-.16.62.62,0,0,0,.11-.39,1.16,1.16,0,0,0-.16-.59,1.07,1.07,0,0,0-.45-.39,1.6,1.6,0,0,0-.67-.13,1.83,1.83,0,0,0-.68.12,1.32,1.32,0,0,0-.5.35.82.82,0,0,0-.22.48h-.86a1.57,1.57,0,0,1,.36-.85,2.13,2.13,0,0,1,.82-.61,2.67,2.67,0,0,1,1.1-.23A2.6,2.6,0,0,1,385.11,215.4Zm-.69,4.77a1.42,1.42,0,0,0,.61-.55,1.44,1.44,0,0,0,.22-.8v-.64l-1.92.2a1.09,1.09,0,0,0-.7.32,1,1,0,0,0-.27.68.9.9,0,0,0,.15.51.89.89,0,0,0,.41.35,1.52,1.52,0,0,0,.62.13A1.9,1.9,0,0,0,384.42,220.17Z"/><path d="M389.38,220.92a1.37,1.37,0,0,1-1-.32,1.16,1.16,0,0,1-.36-.9v-3.62h-1v-.78h.61a.45.45,0,0,0,.34-.13.44.44,0,0,0,.13-.33v-.94h.79v1.4h1.35v.78h-1.36v3.57a.45.45,0,0,0,.49.49h.86v.78Z"/><path d="M396.67,218.33h-4.45a2.43,2.43,0,0,0,.3,1,1.93,1.93,0,0,0,.67.69,1.79,1.79,0,0,0,.93.24,1.89,1.89,0,0,0,.67-.11,1.72,1.72,0,0,0,.57-.3,1.19,1.19,0,0,0,.34-.45h.85a1.75,1.75,0,0,1-.45.83,2.61,2.61,0,0,1-.9.59,3.08,3.08,0,0,1-1.14.21,2.63,2.63,0,0,1-1.42-.38,2.55,2.55,0,0,1-1-1,3.27,3.27,0,0,1-.35-1.52,3.14,3.14,0,0,1,.36-1.5,2.68,2.68,0,0,1,1-1,2.71,2.71,0,0,1,1.41-.38,2.44,2.44,0,0,1,1.34.38,2.69,2.69,0,0,1,.94,1.06,3.34,3.34,0,0,1,.33,1.5Zm-3.82-1.94a2,2,0,0,0-.61,1.21h3.52a2.17,2.17,0,0,0-.56-1.21,1.54,1.54,0,0,0-1.13-.45A1.72,1.72,0,0,0,392.85,216.39Z"/><path d="M399.61,220.92a1.41,1.41,0,0,1-1-.32,1.19,1.19,0,0,1-.35-.9v-3.62h-1v-.78h.61a.45.45,0,0,0,.34-.13.49.49,0,0,0,.13-.33v-.94h.79v1.4h1.35v.78h-1.36v3.57a.45.45,0,0,0,.49.49h.86v.78Z"/><path d="M401.94,214.28v-1h1v1Zm.94,6.64H402V215.3h.88Z"/><path d="M412.1,215.45a1.83,1.83,0,0,1,.71.77,2.54,2.54,0,0,1,.25,1.16v3.54h-.88v-3.51a1.61,1.61,0,0,0-.34-1.1,1.18,1.18,0,0,0-.95-.39,1.46,1.46,0,0,0-.82.22,1.43,1.43,0,0,0-.53.63,2.25,2.25,0,0,0-.19,1v3.19h-.88v-3.51a1.58,1.58,0,0,0-.35-1.1,1.24,1.24,0,0,0-1-.39,1.37,1.37,0,0,0-1.33.85,2.42,2.42,0,0,0-.18,1v3.19h-.88V215.3h.85v.83a2,2,0,0,1,.69-.71,1.93,1.93,0,0,1,1-.25,2,2,0,0,1,1.1.3,1.89,1.89,0,0,1,.72.81,2.12,2.12,0,0,1,.78-.82,2.17,2.17,0,0,1,1.12-.29A2,2,0,0,1,412.1,215.45Z"/><path d="M419.72,218.33h-4.45a2.43,2.43,0,0,0,.3,1,1.93,1.93,0,0,0,.67.69,1.79,1.79,0,0,0,.93.24,1.89,1.89,0,0,0,.67-.11,1.72,1.72,0,0,0,.57-.3,1.19,1.19,0,0,0,.34-.45h.85a1.75,1.75,0,0,1-.45.83,2.61,2.61,0,0,1-.9.59,3.12,3.12,0,0,1-1.14.21,2.63,2.63,0,0,1-1.42-.38,2.55,2.55,0,0,1-1-1,3.27,3.27,0,0,1-.35-1.52,3.14,3.14,0,0,1,.36-1.5,2.68,2.68,0,0,1,1-1,2.71,2.71,0,0,1,1.41-.38,2.44,2.44,0,0,1,1.34.38,2.69,2.69,0,0,1,.94,1.06,3.34,3.34,0,0,1,.33,1.5Zm-3.82-1.94a2,2,0,0,0-.61,1.21h3.52a2.17,2.17,0,0,0-.56-1.21,1.54,1.54,0,0,0-1.13-.45A1.72,1.72,0,0,0,415.9,216.39Z"/><rect class="cls-1" x="432.23" y="80.96" width="167.77" height="63.42" rx="14"/><path d="M507,116.84l-1.71-5.1c-.17-.52-.28-1-.39-1.41h0c-.11.46-.22.91-.36,1.39l-1.69,5.12h-1l2.52-7.41h1.14l2.55,7.41Z"/><path d="M511.73,111.15v.92h-.2a1.6,1.6,0,0,0-1.21.46,1.78,1.78,0,0,0-.44,1.3v3H509v-5.63h.88v1.13a2,2,0,0,1,.66-.88,1.71,1.71,0,0,1,1-.31Z"/><path d="M515.44,111.15v.92h-.21a1.6,1.6,0,0,0-1.2.46,1.78,1.78,0,0,0-.44,1.3v3h-.88v-5.63h.88v1.13a1.92,1.92,0,0,1,.66-.88,1.71,1.71,0,0,1,1-.31Z"/><path d="M517.31,116.59a2.83,2.83,0,0,1-1-1,3.29,3.29,0,0,1,0-3,2.64,2.64,0,0,1,1-1.05,2.83,2.83,0,0,1,3.92,1.05,3.15,3.15,0,0,1,.36,1.51,3.06,3.06,0,0,1-.37,1.52,2.71,2.71,0,0,1-1,1,3,3,0,0,1-2.9,0Zm2.44-.7a1.83,1.83,0,0,0,.68-.75,2.34,2.34,0,0,0,.25-1.12,2.4,2.4,0,0,0-.25-1.12,1.89,1.89,0,0,0-2.65-.75,1.9,1.9,0,0,0-.68.75,2.52,2.52,0,0,0-.24,1.12,2.46,2.46,0,0,0,.24,1.12,1.9,1.9,0,0,0,.68.75,1.93,1.93,0,0,0,2,0Z"/><path d="M524.84,116.84h-.91l-1.85-5.63H523l1.29,4.14.12.45.11-.45,1.34-4.14h.9l1.34,4.14.13.45.11-.45,1.25-4.14h.92l-1.86,5.63h-.92l-1.32-4.33-.1-.36-.1.35Z"/><path d="M506.89,196a3.81,3.81,0,0,1-1.36-1.43,4.39,4.39,0,0,1,0-4.07,3.68,3.68,0,0,1,3.3-1.95,3.71,3.71,0,0,1,3.3,1.95,4.39,4.39,0,0,1,0,4.07,3.8,3.8,0,0,1-5.24,1.43Zm3.4-.72a2.73,2.73,0,0,0,1-1.13,3.4,3.4,0,0,0,.38-1.62,3.58,3.58,0,0,0-.37-1.62,2.72,2.72,0,0,0-2.49-1.52,2.75,2.75,0,0,0-1.47.4,2.91,2.91,0,0,0-1,1.12,3.75,3.75,0,0,0,0,3.25,2.91,2.91,0,0,0,1,1.12,2.75,2.75,0,0,0,1.47.4A2.72,2.72,0,0,0,510.29,195.28Z"/><path d="M514.85,196.38H514v-7.7h.88v4.67l2.54-2.6h1.1l-2.63,2.68,2.73,2.95h-1.12l-2.62-2.84Z"/><path d="M519.31,189.73v-1h1v1Zm.94,6.65h-.88v-5.63h.88Z"/><path d="M522.85,196.13a2.71,2.71,0,0,1-1-1,3.35,3.35,0,0,1,0-3,2.81,2.81,0,0,1,1-1.06,3,3,0,0,1,2.9,0,2.81,2.81,0,0,1,1,1.06,3.27,3.27,0,0,1,0,3,2.71,2.71,0,0,1-1,1,2.8,2.8,0,0,1-1.46.39A2.7,2.7,0,0,1,522.85,196.13Zm2.44-.69a2,2,0,0,0,.68-.75,2.52,2.52,0,0,0,.24-1.12,2.49,2.49,0,0,0-.24-1.12,1.89,1.89,0,0,0-2.65-.75,1.71,1.71,0,0,0-.68.75,2.37,2.37,0,0,0-.25,1.12,2.4,2.4,0,0,0,.25,1.12,1.83,1.83,0,0,0,.68.75,2,2,0,0,0,2,0Z"/><path d="M13.26,116h-.88v-7.68h.88V113l2.53-2.59h1.1l-2.63,2.67L17,116H15.87l-2.61-2.84Z"/><path d="M18.75,115.79a2.75,2.75,0,0,1-1-1.05,3.27,3.27,0,0,1,0-3,2.62,2.62,0,0,1,1-1,3,3,0,0,1,2.9,0,2.62,2.62,0,0,1,1,1,3.27,3.27,0,0,1,0,3,2.76,2.76,0,0,1-2.47,1.43A2.76,2.76,0,0,1,18.75,115.79Zm2.43-.7a1.83,1.83,0,0,0,.68-.75,2.33,2.33,0,0,0,.25-1.11,2.37,2.37,0,0,0-.25-1.12,1.83,1.83,0,0,0-.68-.75,1.91,1.91,0,0,0-2,0,1.83,1.83,0,0,0-.68.75,2.37,2.37,0,0,0-.25,1.12,2.33,2.33,0,0,0,.25,1.11,1.83,1.83,0,0,0,.68.75,1.91,1.91,0,0,0,2,0Z"/><path d="M26,116a1.33,1.33,0,0,1-1-.33,1.12,1.12,0,0,1-.36-.89V111.2h-1v-.78h.61a.47.47,0,0,0,.33-.13.45.45,0,0,0,.13-.34V109h.79v1.41h1.36v.78H25.53v3.56a.5.5,0,0,0,.14.37.53.53,0,0,0,.36.13h.85V116Z"/><path d="M29.23,116h-.87v-7.68h.87Z"/><path d="M31.06,109.4v-1h1v1ZM32,116h-.88v-5.62H32Z"/><path d="M37.63,110.56a1.81,1.81,0,0,1,.73.77,2.51,2.51,0,0,1,.25,1.16V116h-.87v-3.48a1.61,1.61,0,0,0-.37-1.12,1.33,1.33,0,0,0-1-.41,1.7,1.7,0,0,0-.83.2,1.4,1.4,0,0,0-.55.58,1.86,1.86,0,0,0-.2.87V116h-.87v-5.62h.84v.86a1.77,1.77,0,0,1,.72-.74,2.21,2.21,0,0,1,1.08-.25A2.16,2.16,0,0,1,37.63,110.56Z"/><path d="M42.71,113.16l2,2.88h-1l-1.55-2.21L40.67,116h-1l2-2.9-1.94-2.72h1l1.44,2,1.42-2h1Z"/><path d="M45.73,116v-1.21h1.21V116Z"/><path d="M49.23,116a1.89,1.89,0,0,1-.82-.6,1.44,1.44,0,0,1-.29-.87H49a.81.81,0,0,0,.19.5,1.25,1.25,0,0,0,.5.35,2,2,0,0,0,.72.12,1.6,1.6,0,0,0,1-.26.86.86,0,0,0,.34-.72.81.81,0,0,0-.21-.58,1.06,1.06,0,0,0-.62-.28l-1-.16a2,2,0,0,1-1.15-.54,1.45,1.45,0,0,1-.41-1,1.38,1.38,0,0,1,.26-.82,1.73,1.73,0,0,1,.73-.56,2.52,2.52,0,0,1,1.05-.2,2.67,2.67,0,0,1,1.08.2,1.91,1.91,0,0,1,.76.56,1.41,1.41,0,0,1,.29.82H51.6a.73.73,0,0,0-.17-.44,1.17,1.17,0,0,0-.46-.31,1.61,1.61,0,0,0-.63-.11,1.66,1.66,0,0,0-.61.1.93.93,0,0,0-.43.3.66.66,0,0,0-.15.43.72.72,0,0,0,.2.53,1,1,0,0,0,.58.26l1,.17a2.07,2.07,0,0,1,1.18.55,1.54,1.54,0,0,1,.41,1.09,1.62,1.62,0,0,1-.26.91,1.73,1.73,0,0,1-.75.6,2.63,2.63,0,0,1-1.12.22A3,3,0,0,1,49.23,116Z"/><path d="M59,113.44H54.51a2.35,2.35,0,0,0,.3,1,1.83,1.83,0,0,0,.66.69,1.75,1.75,0,0,0,.93.25,2.2,2.2,0,0,0,.68-.11,1.79,1.79,0,0,0,.56-.31,1.15,1.15,0,0,0,.35-.45h.84a1.65,1.65,0,0,1-.45.84,2.5,2.5,0,0,1-.89.58,2.93,2.93,0,0,1-1.14.22,2.69,2.69,0,0,1-1.42-.38,2.55,2.55,0,0,1-1-1.05,3.18,3.18,0,0,1-.35-1.52,3.08,3.08,0,0,1,.35-1.5,2.67,2.67,0,0,1,2.4-1.43,2.38,2.38,0,0,1,1.34.38,2.5,2.5,0,0,1,.93,1,3.26,3.26,0,0,1,.34,1.51Zm-3.83-1.94a2,2,0,0,0-.6,1.22H58a2,2,0,0,0-.56-1.21,1.52,1.52,0,0,0-1.12-.45A1.8,1.8,0,0,0,55.13,111.5Z"/><path d="M63.12,110.36v.92h-.2a1.57,1.57,0,0,0-1.21.46,1.83,1.83,0,0,0-.44,1.3v3h-.88v-5.62h.88v1.13a2.07,2.07,0,0,1,.66-.88,1.71,1.71,0,0,1,1-.31Z"/><path d="M64.25,109.4v-1h1v1Zm.94,6.64h-.88v-5.62h.88Z"/><path d="M70.32,110.52a1.76,1.76,0,0,1,.75.68,2.09,2.09,0,0,1,.26,1.07V116h-.86v-.84a1.64,1.64,0,0,1-.73.72,2.44,2.44,0,0,1-1.15.25,2.25,2.25,0,0,1-1-.21,1.7,1.7,0,0,1-.67-.57,1.53,1.53,0,0,1-.24-.84,1.55,1.55,0,0,1,.23-.81,1.78,1.78,0,0,1,.61-.61,2.26,2.26,0,0,1,.9-.28l1.64-.17a.4.4,0,0,0,.29-.15.63.63,0,0,0,.1-.39,1,1,0,0,0-.16-.59,1.07,1.07,0,0,0-.45-.39,1.53,1.53,0,0,0-.66-.14,1.65,1.65,0,0,0-.68.13,1.23,1.23,0,0,0-.5.34.89.89,0,0,0-.23.49h-.85a1.6,1.6,0,0,1,.36-.86,2.28,2.28,0,0,1,.81-.61,2.72,2.72,0,0,1,1.11-.22A2.45,2.45,0,0,1,70.32,110.52Zm-.68,4.77a1.55,1.55,0,0,0,.61-.55,1.58,1.58,0,0,0,.21-.81v-.63l-1.91.2a1.09,1.09,0,0,0-.71.32.94.94,0,0,0-.27.68.9.9,0,0,0,.15.51,1,1,0,0,0,.42.35,1.48,1.48,0,0,0,.61.12A2,2,0,0,0,69.64,115.29Z"/><path d="M74,116h-.87v-7.68H74Z"/><path d="M75.79,109.4v-1h1v1Zm.94,6.64h-.88v-5.62h.88Z"/><path d="M78.14,116v-.76l3.44-4.06H78.29v-.78h4.32v.76l-3.44,4.06H82.6V116Z"/><path d="M87.27,110.52a1.68,1.68,0,0,1,.74.68,2,2,0,0,1,.27,1.07V116h-.86v-.84a1.66,1.66,0,0,1-.74.72,2.41,2.41,0,0,1-1.15.25,2.17,2.17,0,0,1-1-.21,1.64,1.64,0,0,1-.67-.57,1.53,1.53,0,0,1-.24-.84,1.54,1.54,0,0,1,.22-.81,1.81,1.81,0,0,1,.62-.61,2.17,2.17,0,0,1,.89-.28l1.64-.17a.4.4,0,0,0,.29-.15.62.62,0,0,0,.11-.39,1.13,1.13,0,0,0-.16-.59,1.07,1.07,0,0,0-.45-.39,1.6,1.6,0,0,0-.67-.14,1.65,1.65,0,0,0-.68.13,1.39,1.39,0,0,0-.5.34.87.87,0,0,0-.22.49h-.86a1.6,1.6,0,0,1,.36-.86,2.23,2.23,0,0,1,.82-.61,2.67,2.67,0,0,1,1.1-.22A2.46,2.46,0,0,1,87.27,110.52Zm-.68,4.77a1.46,1.46,0,0,0,.6-.55,1.49,1.49,0,0,0,.22-.81v-.63l-1.92.2a1.07,1.07,0,0,0-.7.32.94.94,0,0,0-.27.68.9.9,0,0,0,.15.51,1,1,0,0,0,.41.35,1.52,1.52,0,0,0,.62.12A2,2,0,0,0,86.59,115.29Z"/><path d="M91.54,116a1.33,1.33,0,0,1-1-.33,1.12,1.12,0,0,1-.36-.89V111.2h-1v-.78h.61a.49.49,0,0,0,.34-.13.45.45,0,0,0,.13-.34V109h.79v1.41h1.35v.78H91.09v3.56a.49.49,0,0,0,.13.37.53.53,0,0,0,.36.13h.86V116Z"/><path d="M93.86,109.4v-1h1v1ZM94.8,116h-.88v-5.62h.88Z"/><path d="M97.61,115.79a2.83,2.83,0,0,1-1-1.05,3.27,3.27,0,0,1,0-3,2.64,2.64,0,0,1,1-1,2.82,2.82,0,0,1,3.91,1,3.27,3.27,0,0,1,0,3,2.76,2.76,0,0,1-2.48,1.43A2.82,2.82,0,0,1,97.61,115.79Zm2.44-.7a1.9,1.9,0,0,0,.68-.75,2.45,2.45,0,0,0,.24-1.11,2.49,2.49,0,0,0-.24-1.12,1.9,1.9,0,0,0-.68-.75,1.93,1.93,0,0,0-2,0,1.9,1.9,0,0,0-.68.75,2.49,2.49,0,0,0-.24,1.12,2.45,2.45,0,0,0,.24,1.11,1.9,1.9,0,0,0,.68.75,1.93,1.93,0,0,0,2,0Z"/><path d="M107.07,110.56a1.81,1.81,0,0,1,.73.77,2.51,2.51,0,0,1,.26,1.16V116h-.88v-3.48a1.61,1.61,0,0,0-.37-1.12,1.33,1.33,0,0,0-1-.41,1.7,1.7,0,0,0-.83.2,1.4,1.4,0,0,0-.55.58,1.86,1.86,0,0,0-.2.87V116h-.87v-5.62h.84v.86a1.74,1.74,0,0,1,.73-.74,2.39,2.39,0,0,1,2.17,0Z"/><path d="M54.63,165.85l-2.77,7.7h1l.68-2.05h3.4l.74,2.05h1l-2.88-7.7Zm-.81,4.86,1.24-3.66.13-.45.14.45,1.31,3.66Zm10-2.54a2.54,2.54,0,0,0-1.38-.38,2.34,2.34,0,0,0-1.16.28,2.08,2.08,0,0,0-.84.8v-1H59.6v7.4h.87l0-2.36v-.36a2.15,2.15,0,0,0,.84.8,2.34,2.34,0,0,0,1.16.28,2.63,2.63,0,0,0,1.38-.38,2.68,2.68,0,0,0,1-1.06,3.41,3.41,0,0,0,0-3A2.68,2.68,0,0,0,63.83,168.17Zm.16,3.67a1.93,1.93,0,0,1-.67.77,1.67,1.67,0,0,1-1,.28,1.72,1.72,0,0,1-1-.28,2,2,0,0,1-.67-.77,2.66,2.66,0,0,1,0-2.21,1.87,1.87,0,0,1,.67-.77,1.72,1.72,0,0,1,1-.28,1.67,1.67,0,0,1,1,.28,1.8,1.8,0,0,1,.67.77,2.66,2.66,0,0,1,0,2.21Zm6.21-3.67a3,3,0,0,0-2.9,0,2.64,2.64,0,0,0-1,1.05,3.15,3.15,0,0,0-.37,1.51,3.19,3.19,0,0,0,.37,1.52,2.87,2.87,0,0,0,3.91,1.05,2.71,2.71,0,0,0,1-1.05,3.08,3.08,0,0,0,.37-1.52,3.15,3.15,0,0,0-.36-1.51A2.71,2.71,0,0,0,70.2,168.17Zm.21,3.68a1.89,1.89,0,0,1-2.65.75,1.9,1.9,0,0,1-.68-.75,2.49,2.49,0,0,1-.24-1.12,2.52,2.52,0,0,1,.24-1.12,1.9,1.9,0,0,1,.68-.75,1.86,1.86,0,0,1,2.65.75,2.4,2.4,0,0,1,.25,1.12A2.37,2.37,0,0,1,70.41,171.85Zm2.39-6h.88v7.7H72.8Zm2.11,0h.88v7.7h-.88Zm7.39,3.37a2.62,2.62,0,0,0-1-1.05,3,3,0,0,0-2.9,0,2.64,2.64,0,0,0-1,1.05,3,3,0,0,0-.37,1.51,3.08,3.08,0,0,0,.37,1.52,2.82,2.82,0,0,0,4.93,0,3.08,3.08,0,0,0,.37-1.52A3,3,0,0,0,82.3,169.22Zm-.8,2.63a1.89,1.89,0,0,1-2.65.75,1.9,1.9,0,0,1-.68-.75,2.49,2.49,0,0,1-.24-1.12,2.52,2.52,0,0,1,.24-1.12,1.9,1.9,0,0,1,.68-.75,1.86,1.86,0,0,1,2.65.75,2.4,2.4,0,0,1,.25,1.12A2.37,2.37,0,0,1,81.5,171.85Z"/><rect class="cls-1" x="432.23" y="16.48" width="120.31" height="61.67" rx="14"/><path d="M477.18,51.37a2.28,2.28,0,0,1-.95-.81,2.16,2.16,0,0,1-.34-1.19h.93a1.31,1.31,0,0,0,.23.76,1.5,1.5,0,0,0,.63.53,2.22,2.22,0,0,0,.92.18,2.29,2.29,0,0,0,.9-.17,1.35,1.35,0,0,0,.62-.5,1.21,1.21,0,0,0,.22-.73,1.25,1.25,0,0,0-.3-.83,1.44,1.44,0,0,0-.83-.45l-1.35-.26a2.29,2.29,0,0,1-.94-.4,2.07,2.07,0,0,1-.62-.73,2.12,2.12,0,0,1-.21-.94,1.94,1.94,0,0,1,.32-1.09,2.09,2.09,0,0,1,.88-.75,3,3,0,0,1,1.28-.27,3,3,0,0,1,1.31.27,2.14,2.14,0,0,1,.89.76,1.89,1.89,0,0,1,.32,1.1h-.93a1.18,1.18,0,0,0-.2-.67,1.3,1.3,0,0,0-.56-.47,2.16,2.16,0,0,0-1.63,0,1.28,1.28,0,0,0-.56.46,1.21,1.21,0,0,0-.2.68,1.12,1.12,0,0,0,.28.78,1.35,1.35,0,0,0,.77.42l1.41.28A2.15,2.15,0,0,1,481,48.48a2.12,2.12,0,0,1,.23,1,2.08,2.08,0,0,1-.34,1.16,2.28,2.28,0,0,1-1,.79,3.4,3.4,0,0,1-1.38.28A3.18,3.18,0,0,1,477.18,51.37Z"/><path d="M484.39,51.53a1.33,1.33,0,0,1-1-.32,1.14,1.14,0,0,1-.36-.89V46.7h-1v-.78h.6a.44.44,0,0,0,.34-.14.42.42,0,0,0,.13-.33v-.94H484v1.41h1.36v.78h-1.36v3.56a.51.51,0,0,0,.13.36.48.48,0,0,0,.36.13h.86v.78Z"/><path d="M487.7,51.28a2.62,2.62,0,0,1-1-1.05,3.25,3.25,0,0,1,0-3,2.62,2.62,0,0,1,1-1,2.89,2.89,0,0,1,2.9,0,2.62,2.62,0,0,1,1,1,3.25,3.25,0,0,1,0,3,2.71,2.71,0,0,1-1,1.05,2.74,2.74,0,0,1-1.45.39A2.7,2.7,0,0,1,487.7,51.28Zm2.43-.69a1.83,1.83,0,0,0,.68-.75,2.61,2.61,0,0,0,0-2.23,1.77,1.77,0,0,0-.68-.75,1.91,1.91,0,0,0-2,0,1.77,1.77,0,0,0-.68.75,2.61,2.61,0,0,0,0,2.23,1.83,1.83,0,0,0,.68.75,2,2,0,0,0,2,0Z"/><path d="M496.14,45.86v.92h-.2a1.57,1.57,0,0,0-1.21.46,1.82,1.82,0,0,0-.44,1.29v3h-.88V45.92h.88v1.13a2,2,0,0,1,.66-.88,1.67,1.67,0,0,1,1-.31Z"/><path d="M502.22,48.94h-4.46a2.59,2.59,0,0,0,.31,1,1.78,1.78,0,0,0,1.59.94,2.2,2.2,0,0,0,.68-.11,2,2,0,0,0,.56-.31,1.15,1.15,0,0,0,.35-.45h.84a1.59,1.59,0,0,1-.45.83,2.47,2.47,0,0,1-.9.59,3,3,0,0,1-1.13.22,2.64,2.64,0,0,1-2.41-1.43,3.32,3.32,0,0,1-.35-1.53,3.07,3.07,0,0,1,.36-1.49,2.69,2.69,0,0,1,1-1,2.63,2.63,0,0,1,1.42-.39,2.41,2.41,0,0,1,1.34.39,2.57,2.57,0,0,1,.93,1,3.26,3.26,0,0,1,.34,1.51ZM498.39,47a1.92,1.92,0,0,0-.6,1.21h3.51a2.08,2.08,0,0,0-.56-1.2,1.52,1.52,0,0,0-1.12-.45A1.76,1.76,0,0,0,498.39,47Z"/><path d="M505.05,51.4a2.68,2.68,0,0,1-.95-.74,2.3,2.3,0,0,1-.46-1.1h.93a1.44,1.44,0,0,0,.33.68,1.71,1.71,0,0,0,.63.46,2,2,0,0,0,.81.16,1.78,1.78,0,0,0,.93-.23,1.58,1.58,0,0,0,.63-.65,2,2,0,0,0,.23-1,2,2,0,0,0-.23-1,1.58,1.58,0,0,0-.62-.66,1.75,1.75,0,0,0-.92-.23,1.68,1.68,0,0,0-1,.3,1.6,1.6,0,0,0-.62.82h-.88l.1-4.43h4.7v.84h-3.8l-.08,2.6a1.58,1.58,0,0,1,.69-.66,2.42,2.42,0,0,1,1.09-.24,2.61,2.61,0,0,1,1.3.32,2.29,2.29,0,0,1,.88.92,3,3,0,0,1,0,2.75,2.4,2.4,0,0,1-1,.95,3,3,0,0,1-1.42.34A3,3,0,0,1,505.05,51.4Z"/></svg>